<?xml version="1.0" encoding="UTF-8" standalone="no"?>
<svg
   version="1.0"
   width="609.79523pt"
   height="115.70256pt"
   viewBox="0 0 609.79523 115.70256"
   preserveAspectRatio="xMidYMid"
   id="svg6"
   xmlns:xlink="http://www.w3.org/1999/xlink"
   xmlns="http://www.w3.org/2000/svg"
   xmlns:svg="http://www.w3.org/2000/svg">
  <defs
     id="defs6">
    <linearGradient
       id="linearGradient1">
      <stop
         style="stop-color:#011f5b;stop-opacity:1;"
         offset="0"
         id="stop1" />
      <stop
         style="stop-color:#0b407a;stop-opacity:1;"
         offset="1"
         id="stop2" />
    </linearGradient>
    <linearGradient
       xlink:href="#linearGradient1"
       id="linearGradient2"
       x1="790"
       y1="2641.4873"
       x2="6887.9521"
       y2="2641.4873"
       gradientUnits="userSpaceOnUse" />
    <linearGradient
       xlink:href="#linearGradient1"
       id="linearGradient3"
       gradientUnits="userSpaceOnUse"
       x1="790"
       y1="2641.4873"
       x2="6887.9521"
       y2="2641.4873" />
    <linearGradient
       xlink:href="#linearGradient1"
       id="linearGradient4"
       gradientUnits="userSpaceOnUse"
       x1="790"
       y1="2641.4873"
       x2="6887.9521"
       y2="2641.4873" />
    <linearGradient
       xlink:href="#linearGradient1"
       id="linearGradient5"
       gradientUnits="userSpaceOnUse"
       x1="790"
       y1="2641.4873"
       x2="6887.9521"
       y2="2641.4873" />
    <linearGradient
       xlink:href="#linearGradient1"
       id="linearGradient6"
       gradientUnits="userSpaceOnUse"
       x1="790"
       y1="2641.4873"
       x2="6887.9521"
       y2="2641.4873" />
    <linearGradient
       xlink:href="#linearGradient1"
       id="linearGradient7"
       gradientUnits="userSpaceOnUse"
       x1="790"
       y1="2641.4873"
       x2="6887.9521"
       y2="2641.4873" />
    <linearGradient
       xlink:href="#linearGradient1"
       id="linearGradient8"
       gradientUnits="userSpaceOnUse"
       x1="790"
       y1="2641.4873"
       x2="6887.9521"
       y2="2641.4873" />
  </defs>
  <g
     transform="matrix(0.1,0,0,-0.1,-79,322)"
     fill="#000000"
     stroke="none"
     id="g6"
     style="fill:url(#linearGradient2);fill-opacity:1">
    <path
       d="m 1455,3154 c -82,-36 -211,-90 -285,-120 -192,-79 -281,-125 -304,-157 -30,-41 -34,-146 -8,-215 20,-52 20,-52 0,-63 -29,-15 -68,-106 -68,-158 0,-52 32,-126 64,-146 29.14978,-18.2186 633.2875,-198.2471 767.8885,-230.1727 13.7034,-3.2503 36.1791,-2.1634 49.3505,2.7804 118.8412,44.6061 617.0284,271.0656 646.761,295.3923 22,18 10,59 -20,69 -22,8 -76,-13 -353,-136 -137.581,-62.2573 -230.0464,-111.6308 -271.0918,-132.3677 -12.4289,-6.2792 -34.1095,-8.9021 -47.6617,-5.7275 C 1503.0466,2186.7644 964.79792,2335.7859 929,2351 c -48,19 -65,100 -33,161 12,23 21,29 37,25 12,-2 164,-48 337,-102 134.7119,-42.0488 282.8876,-79.6617 349.3895,-93.4557 19.0169,-3.9446 50.1422,-1.9958 68.3114,4.8527 137.7472,51.9216 608.4654,280.1878 652.2991,310.603 28,20 22,54 -13,71 -26,13 -42,7 -290,-107 -144,-66 -289,-131 -321,-145 l -7.8555,-2.965 a 161.9249,161.9249 2.5787965 0 0 -100.509,-4.5268 L 1307,2552 c -295,87 -352,106 -365,126 -22,34 -27,122 -9,146 14,19 24,17 348,-79 184,-54 367.5579,-99.5433 384.5579,-99.5433 31,0 643.4421,274.5433 677.4421,302.5433 22,19 22,49 -1,61 -26,14 -698,211 -719,211 -10,0 -85,-30 -168,-66 z m 445,-94 c 113,-34 211,-65 218,-69 8,-5 -5,-15 -36,-30 l -36.4183,-17.4505 a 32.908675,32.908675 4.2840073 0 0 -23.8609,-1.7874 L 1799,3010 c -129,39 -245,75 -259,79 -24,8 -23,9 24,33 45,23 53,24 90,13 23,-7 133,-41 246,-75 z m -217,-76 c 126.0261,-37.1732 231.5012,-70.2361 251.5835,-77.5749 1.9203,-0.7018 3.3385,-3.1915 2.0327,-4.5648 -3.6732,-3.8634 -13.3413,-10.3618 -25.6162,-16.8603 -29,-14 -36,-14 -89,1 -122.4906,34.5966 -415.4708,123.4001 -456.2862,137.2435 -2.631,0.8924 -3.6848,3.7797 -1.5429,5.2975 11.6062,8.2245 50.636,27.1607 63.8291,30.459 2,1 117,-33 255,-75 z"
       id="path1"
       style="fill:url(#linearGradient3);fill-opacity:1" />
    <path
       d="m 2960,2625 v -485 h 375 376 l -3,111 -3,110 -242,-1 -243,-1 v 76 75 h 180 180 v 110 110 h -180 -180 v 75 75 h 240 240 v 115 115 h -370 -370 z"
       id="path2"
       style="fill:url(#linearGradient4);fill-opacity:1" />
    <path
       d="m 5530,2625 v -485 h 125 125 v 485 485 h -125 -125 z"
       id="path3"
       style="fill:url(#linearGradient5);fill-opacity:1" />
    <path
       d="m 6256,3101 c -11,-17 -396,-945 -396,-953 0,-5 57,-7 127,-6 l 127,3 40,98 40,97 180,-2 180,-3 40,-97 40,-98 h 129 c 118,0 129,1 124,18 -6,22 -381,901 -396,930 -11,21 -19,22 -121,22 -60,0 -111,-4 -114,-9 z m 214,-558 c 0,-2 -43,-3 -95,-3 -56,0 -95,4 -95,10 0,5 21,62 47,126 l 46,117 49,-124 c 26,-68 48,-125 48,-126 z"
       id="path4"
       style="fill:url(#linearGradient6);fill-opacity:1" />
    <path
       d="m 4390,2961 v -139 l -52,20 c -80,30 -222,22 -301,-17 -70,-35 -130,-97 -165,-173 -23,-49 -27,-70 -27,-152 0,-78 4,-104 24,-147 29,-66 113,-146 188,-181 72,-33 203,-42 282,-19 43,13 51,13 51,1 0,-11 21,-14 100,-14 h 100 v 480 480 h -100 -100 z m -73,-307 c 55,-41 68,-70 68,-147 0,-85 -22,-125 -88,-158 -122,-63 -272,43 -252,178 9.0938,69.5422 38.0151,108.6248 110,140 41,19 129,11 162,-13 z"
       id="path5"
       style="fill:url(#linearGradient7);fill-opacity:1" />
    <path
       d="m 4712,2613 c 3,-217 5,-242 24,-284 73,-158 245,-231 429,-184 33.5974,9.2393 63.4773,12.9066 63.5111,10.3569 0.035,-2.6617 -0.094,-10.1311 -0.039,-15.1989 C 5228.7151,2139.3494 5272,2140 5336,2140 h 104 v 355 355 h -104 -105 l -3,-202 c -3,-182 -5,-207 -23,-237 -42,-72 -112,-96 -190,-67 -80,31 -85,135.3649 -85,295 v 211 h -111 -110 z"
       id="path6"
       style="fill:url(#linearGradient8);fill-opacity:1" />
  </g>
</svg>
