<?xml version="1.0" encoding="UTF-8" standalone="no"?>
<svg
   version="1.0"
   width="180pt"
   height="180pt"
   viewBox="0 0 180 180"
   preserveAspectRatio="xMidYMid"
   id="svg6"
   xmlns:xlink="http://www.w3.org/1999/xlink"
   xmlns="http://www.w3.org/2000/svg"
   xmlns:svg="http://www.w3.org/2000/svg">
  <defs
     id="defs6">
    <linearGradient
       id="linearGradient1">
      <stop
         style="stop-color:#011f5b;stop-opacity:1;"
         offset="0"
         id="stop1" />
      <stop
         style="stop-color:#0b407a;stop-opacity:1;"
         offset="1"
         id="stop2" />
    </linearGradient>
    <linearGradient
       xlink:href="#linearGradient1"
       id="linearGradient2"
       x1="910.57721"
       y1="-2769.9998"
       x2="2469.4229"
       y2="-1869.9999"
       gradientUnits="userSpaceOnUse" />
  </defs>
  <g
     transform="matrix(0.1,0,0,-0.1,-79,322)"
     fill="#000000"
     stroke="none"
     id="g6"
     style="fill:#ebebeb;fill-opacity:1">
    <rect
       style="fill:url(#linearGradient2);stroke-width:75;stroke-linecap:square;stroke-opacity:0.414538;paint-order:markers stroke fill"
       id="rect1"
       width="1800"
       height="1800"
       x="790"
       y="-3220"
       transform="scale(1,-1)"
       ry="261.38989" />
    <path
       d="m 1570.3115,2832.5128 c -82,-36 -211,-90 -285,-120 -192,-79 -281,-125 -304.00004,-157 -30,-41 -34,-146 -8,-215 20,-52 20,-52 0,-63 -29,-15 -68,-106 -68,-158 0,-52 32,-126 64,-146 29.1498,-18.2186 633.28754,-198.2471 767.88854,-230.1727 13.7034,-3.2503 36.1791,-2.1634 49.3505,2.7804 118.8412,44.6061 617.0284,271.0656 646.761,295.3923 22,18 10,59 -20,69 -22,8 -76,-13 -353,-136 -137.581,-62.2573 -230.0464,-111.6308 -271.0918,-132.3677 -12.4289,-6.2792 -34.1095,-8.9021 -47.6617,-5.7275 -123.1999,28.8596 -661.4486,177.8811 -697.2465,193.0952 -48.00004,19 -65.00004,100 -33,161 12,23 21,29 37,25 12,-2 164,-48 337,-102 134.7119,-42.0488 282.8876,-79.6617 349.3895,-93.4557 19.0169,-3.9446 50.1422,-1.9958 68.3114,4.8527 137.7472,51.9216 608.4654,280.1878 652.2991,310.603 28,20 22,54 -13,71 -26,13 -42,7 -290,-107 -144,-66 -289,-131 -321,-145 l -7.8555,-2.965 a 161.9249,161.9249 0 0 0 -100.509,-4.5268 l -300.6355,83.4918 c -295,87 -352,106 -365,126 -22,34 -27,122 -9,146 14,19 24,17 348,-79 184,-54 367.5579,-99.5433 384.5579,-99.5433 31,0 643.4421,274.5433 677.4421,302.5433 22,19 22,49 -1,61 -26,14 -698,211 -719,211 -10,0 -85,-30 -168,-66 z m 445,-94 c 113,-34 211,-65 218,-69 8,-5 -5,-15 -36,-30 l -36.4183,-17.4505 a 32.908675,32.908675 0 0 0 -23.8609,-1.7874 l -222.7208,68.2379 c -129,39 -245,75 -259,79 -24,8 -23,9 24,33 45,23 53,24 90,13 23,-7 133,-41 246,-75 z m -217,-76 c 126.0261,-37.1732 231.5012,-70.2361 251.5835,-77.5749 1.9203,-0.7018 3.3385,-3.1915 2.0327,-4.5648 -3.6732,-3.8634 -13.3413,-10.3618 -25.6162,-16.8603 -29,-14 -36,-14 -89,1 -122.4906,34.5966 -415.4708,123.4001 -456.2862,137.2435 -2.631,0.8924 -3.6848,3.7797 -1.5429,5.2975 11.6062,8.2245 50.636,27.1607 63.8291,30.459 2,1 117,-33 255,-75 z"
       id="path1"
       style="fill:#ebebeb;fill-opacity:1" />
  </g>
</svg>
